<?xml version="1.0" encoding="iso-8859-1"?>
<!-- Generator: Adobe Illustrator 19.0.0, SVG Export Plug-In . SVG Version: 6.00 Build 0)  -->
<svg version="1.1" id="Layer_1" xmlns="http://www.w3.org/2000/svg" xmlns:xlink="http://www.w3.org/1999/xlink" x="0px" y="0px"
	 viewBox="0 0 512 512" style="enable-background:new 0 0 512 512;" xml:space="preserve">
<circle style="fill:#2D4452;" cx="256" cy="256" r="256"/>
<path style="fill:#233540;" d="M493.372,351.868c-0.26-0.788-0.548-1.552-0.9-2.232c-0.284-0.88-0.608-1.716-0.996-2.46
	c-0.28-0.88-0.604-1.7-0.988-2.448c-0.28-0.88-0.604-1.708-0.992-2.452c-0.276-0.884-0.604-1.712-0.992-2.452
	c-0.284-0.884-0.604-1.712-0.996-2.46c-0.28-0.88-0.6-1.704-0.988-2.444c-0.276-0.884-0.604-1.712-0.992-2.452
	c-0.276-0.884-0.604-1.712-0.992-2.456c-0.284-0.88-0.604-1.712-0.996-2.46c-0.28-0.88-0.6-1.7-0.984-2.448
	c-0.288-0.888-0.616-1.724-1.008-2.472c-0.28-0.88-0.6-1.7-0.984-2.432c-0.28-0.88-0.596-1.708-0.992-2.452
	c-0.272-0.884-0.6-1.716-0.992-2.46c-0.276-0.884-0.6-1.704-0.992-2.444c-0.272-0.884-0.596-1.708-0.992-2.456
	c-0.272-0.88-0.596-1.708-0.992-2.456c-0.272-0.88-0.6-1.712-0.992-2.452c-0.276-0.884-0.6-1.712-0.984-2.448
	c-0.28-0.88-0.604-1.708-0.992-2.456c-0.28-0.88-0.604-1.708-0.992-2.452c-0.28-0.884-0.608-1.712-0.996-2.456
	c-0.28-0.888-0.6-1.708-0.988-2.448c-0.272-0.88-0.6-1.708-0.992-2.452c-0.272-0.884-0.6-1.712-0.992-2.456
	c-0.272-0.88-0.6-1.708-0.992-2.452c-0.272-0.884-0.6-1.716-0.996-2.46c-0.276-0.88-0.596-1.7-0.984-2.448
	c-0.276-0.876-0.604-1.704-0.992-2.448c-0.276-0.888-0.604-1.716-0.988-2.456c-0.28-0.884-0.608-1.712-1-2.46
	c-0.28-0.88-0.6-1.704-0.984-2.444c-0.28-0.884-0.608-1.712-0.992-2.452c-0.28-0.884-0.604-1.712-0.992-2.456
	c-0.28-0.88-0.608-1.712-1-2.456c-0.28-0.892-0.604-1.724-1-2.476c-0.276-0.868-0.596-1.688-0.984-2.424
	c-0.276-0.884-0.6-1.712-0.992-2.456c-0.276-0.88-0.6-1.708-0.992-2.456c-0.28-0.88-0.604-1.712-0.992-2.46
	c-0.28-0.88-0.6-1.7-0.988-2.444c-0.276-0.884-0.604-1.712-0.992-2.456c-0.276-0.88-0.604-1.708-0.992-2.456
	c-0.284-0.88-0.604-1.712-0.996-2.46c-0.28-0.88-0.6-1.704-0.988-2.444c-0.276-0.88-0.604-1.708-0.992-2.456
	c-0.276-0.88-0.604-1.708-0.988-2.456c-0.288-0.88-0.608-1.712-1-2.456c-0.28-0.884-0.6-1.704-0.984-2.448
	c-0.28-0.88-0.6-1.708-0.992-2.456c-0.28-0.88-0.6-1.708-0.992-2.456c-0.28-0.88-0.6-1.708-0.992-2.452
	c-0.28-0.884-0.608-1.716-1-2.46c-0.272-0.88-0.6-1.7-0.984-2.448c-0.28-0.88-0.6-1.708-0.992-2.456
	c-0.276-0.88-0.6-1.708-0.992-2.452c-0.28-0.884-0.604-1.716-0.992-2.46c-0.28-0.88-0.604-1.704-0.992-2.448
	c-0.276-0.88-0.596-1.708-0.992-2.456c-0.276-0.88-0.596-1.708-0.992-2.452c-0.276-0.896-0.604-1.736-1.008-2.488
	c-0.268-0.868-0.596-1.68-0.976-2.42c-0.276-0.88-0.604-1.708-0.992-2.452c-0.276-0.884-0.604-1.712-0.992-2.456
	c-0.276-0.884-0.604-1.716-0.996-2.46c-0.28-0.88-0.596-1.704-0.984-2.448c-0.276-0.88-0.604-1.708-0.992-2.452
	c-0.276-0.884-0.604-1.712-0.992-2.456c-0.276-0.88-0.604-1.708-0.992-2.456c-0.276-0.88-0.604-1.712-1-2.46
	c-0.276-0.88-0.596-1.704-0.984-2.444c-0.276-0.884-0.604-1.712-0.992-2.456c-1.316-4.112-3.784-7.004-7.12-7.004
	c-0.936,0-1.836,0.12-2.704,0.308c-7.328,1.42-12.624,8.092-20.96,8.692c-1.812,0.128-3.452-0.084-4.984-0.528
	c-0.876-0.252-1.704-0.592-2.492-0.996c-0.04-0.02-0.084-0.044-0.116-0.068c-2.4-1.236-4.428-3.064-6.212-5.068
	c-0.032-0.028-0.056-0.06-0.084-0.084c-1.164-1.316-2.22-2.708-3.188-4.052c-0.048-0.06-0.084-0.116-0.12-0.176
	c-0.5-0.688-0.976-1.36-1.436-2.004c-0.22-0.304-0.42-0.584-0.632-0.876c-0.016-0.032-0.028-0.064-0.04-0.088
	c-0.296-0.828-0.652-1.628-0.988-2.436c-0.3-0.832-0.656-1.64-0.992-2.456c-8.12-22.64-30.932-38.98-57.904-38.98
	c-33.772,0-61.152,25.584-61.152,57.148c0,7.252,1.564,14.148,4.216,20.528c0.3,0.832,0.652,1.64,0.992,2.456
	c0.3,0.836,0.652,1.648,0.996,2.464c0.296,0.832,0.648,1.628,0.988,2.44c0.3,0.832,0.652,1.64,0.992,2.456
	c0.304,0.832,0.656,1.64,0.992,2.456c0.304,0.832,0.656,1.64,0.992,2.452c0.304,0.836,0.656,1.648,1,2.464
	c0.296,0.832,0.648,1.632,0.984,2.444c0.3,0.832,0.656,1.64,0.992,2.456c0.3,0.832,0.656,1.64,0.992,2.452
	c0.3,0.852,0.664,1.668,1.008,2.496c0.292,0.82,0.644,1.612,0.98,2.416c0.296,0.832,0.648,1.64,0.992,2.456
	c0.296,0.832,0.648,1.636,0.992,2.452c0.296,0.836,0.648,1.648,0.992,2.464c0.296,0.832,0.648,1.632,0.992,2.444
	c0.296,0.832,0.648,1.64,0.992,2.456c0.296,0.832,0.648,1.636,0.988,2.452c0.296,0.836,0.652,1.648,0.996,2.464
	c0.22,0.596,0.448,1.18,0.688,1.764c-0.284,12.216-6.12,20.176-10.768,25.004c-2.36,2.44-4.86,3.524-8.14,3.524V272H99.608
	c-5.36,0-9.696,2.82-9.696,8.18c0,5.584,1.172,10.84,3.368,15.72c0.308,0.828,0.628,1.648,0.992,2.456
	c0.308,0.832,0.632,1.66,1,2.472c0.304,0.82,0.624,1.636,0.984,2.436c0.304,0.828,0.624,1.648,0.992,2.452
	c0.28,0.756,0.572,1.524,0.904,2.264c0.344,6.684,1.456,13.796,1.456,19.144c0,5.48,1.228,11.8,3.984,18.308
	c0.296,0.82,0.64,1.64,0.992,2.452c0.296,0.82,0.648,1.644,1,2.472c0.296,0.808,0.64,1.62,0.984,2.436
	c0.296,0.816,0.64,1.636,0.992,2.456c0.296,0.812,0.64,1.632,0.992,2.448c0.296,0.816,0.64,1.636,0.992,2.456
	c0.296,0.82,0.648,1.644,1,2.472c0.296,0.808,0.64,1.62,0.984,2.432c0.296,0.82,0.64,1.632,0.992,2.452
	c0.296,0.816,0.64,1.636,0.992,2.456c0.3,0.832,0.652,1.668,1.016,2.508c0.288,0.792,0.628,1.596,0.968,2.412
	c0.3,0.812,0.644,1.628,0.992,2.448c0.3,0.816,0.644,1.636,0.992,2.456c0.3,0.82,0.648,1.64,1,2.468
	c0.296,0.812,0.636,1.624,0.984,2.436c0.3,0.816,0.644,1.632,0.992,2.452c0.3,0.816,0.644,1.636,0.992,2.452
	c0.296,0.82,0.648,1.648,1,2.476c0.296,0.804,0.632,1.616,0.984,2.432c0.296,0.816,0.64,1.632,0.992,2.452
	c0.296,0.816,0.64,1.636,0.992,2.456c0.296,0.812,0.64,1.632,0.992,2.452c0.296,0.82,0.648,1.644,1,2.472
	c0.296,0.808,0.632,1.616,0.984,2.432c0.296,0.812,0.64,1.632,0.992,2.452c0.296,0.82,0.64,1.64,0.992,2.456
	c0.296,0.82,0.644,1.644,1,2.472c0.292,0.804,0.632,1.616,0.984,2.428c0.296,0.82,0.64,1.64,0.988,2.46
	c0.3,0.812,0.644,1.632,0.992,2.452c0.3,0.82,0.648,1.644,1,2.472c0.296,0.804,0.636,1.612,0.984,2.432
	c0.3,0.812,0.644,1.632,0.992,2.452c0.3,0.816,0.644,1.636,0.992,2.456c0.304,0.828,0.656,1.66,1.012,2.496
	c0.292,0.808,0.636,1.608,0.984,2.428c0.296,0.804,0.64,1.616,0.984,2.432c0.296,0.816,0.64,1.636,0.992,2.456
	c0.296,0.816,0.64,1.632,0.992,2.452c0.296,0.82,0.648,1.64,1,2.468c0.296,0.812,0.64,1.62,0.984,2.436
	c0.296,0.816,0.64,1.636,0.992,2.456c0.296,0.816,0.64,1.628,0.992,2.448c0.296,0.82,0.648,1.648,1,2.476
	c0.292,0.804,0.64,1.616,0.984,2.432c0.296,0.816,0.64,1.636,0.992,2.456c0.296,0.812,0.64,1.632,0.988,2.452
	c0.3,0.812,0.644,1.632,0.992,2.452c0.3,0.82,0.648,1.644,1,2.472c0.296,0.808,0.64,1.62,0.984,2.432
	c0.3,0.82,0.644,1.632,0.992,2.452c0.3,0.816,0.644,1.636,0.992,2.456c0.3,0.82,0.648,1.644,1,2.472
	c0.296,0.804,0.64,1.616,0.984,2.436c0.3,0.812,0.644,1.628,0.992,2.448c0.3,0.816,0.644,1.636,0.992,2.456
	c0.3,0.82,0.644,1.644,1,2.468c0.292,0.812,0.636,1.624,0.98,2.436c0.304,0.812,0.648,1.632,0.992,2.452
	c0.252,0.684,0.548,1.376,0.836,2.064C192.524,505.9,223.54,512,256,512C363.472,512,455.42,445.744,493.372,351.868z"/>
<path style="fill:#FFD464;" d="M341.944,219.268l-19.252,2.408c0.056,0.368-28.42-8.564-29.056-26.492
	c-0.072-1.704-0.112-3.008-0.112-3.804h-19.396c0,0.944-19.448,5.804-18.26,7.424c29.12,39.696,15.864,60.116,7.004,69.296
	c-2.36,2.44-4.86,3.528-8.136,3.528v16.72H109.288c-17.088,0-9.696,25.172-9.696,38.788c0,25.212,24.508,67.884,116.368,67.884
	c82.468,0,135.752-26.648,135.752-67.884C351.72,297.78,342.34,222.456,341.944,219.268z"/>
<path style="fill:#F2C95F;" d="M341.944,219.268l-17.956,2.244c2.732,23.016,8.336,73.196,8.336,95.924
	c0,41.232-53.288,67.88-135.752,67.88c-28.376,0-50.276-4.084-67.072-10.452c17.984,11.648,45.492,20.156,86.46,20.156
	c82.468,0,135.752-26.648,135.752-67.884C351.72,297.78,342.34,222.456,341.944,219.268z"/>
<path style="fill:#FFC066;" d="M187.532,334.736c-57.476,0-97.632-21.54-97.632-54.556c0-5.36,4.336-8.18,9.696-8.18h174.552
	c5.36,0,9.696,2.82,9.696,8.18C283.836,313.72,245.136,334.736,187.532,334.736z"/>
<path style="fill:#F2B661;" d="M274.14,272h-12c5.36,0,9.696,2.82,9.696,8.18c0,32.524-36.452,53.212-91.188,54.428
	c2.264,0.076,4.556,0.116,6.884,0.116c57.604,0,96.304-21.016,96.304-54.556C283.836,274.82,279.5,272,274.14,272z"/>
<ellipse style="fill:#FFD464;" cx="311.04" cy="174.128" rx="61.148" ry="57.148"/>
<path style="fill:#F2C95F;" d="M311.048,116.98c-2.028,0-4.024,0.096-6,0.284c30.956,2.812,55.148,27.196,55.148,56.864
	s-24.192,54.048-55.148,56.864c1.976,0.184,3.972,0.284,6,0.284c33.772,0,61.148-25.584,61.148-57.148S344.82,116.98,311.048,116.98
	z"/>
<path style="fill:#E78244;" d="M370.332,160.08c-1.016,15.06-28.76,29.136-7.12,43.892c4.024,1.576,17.188,5.2,28.792,3.868
	c20.332-2.332,30.096-14.164,30.096-27.832c0-7.58-3.128-14.208-8.204-14.208c-8.828,0-14.336,8.336-23.664,9
	C379.92,175.528,374.524,165.628,370.332,160.08z"/>
<g>
	<path style="fill:#D97A40;" d="M382.236,174.792c1.072-0.084,2.068-0.272,3.032-0.524c-7.188-2.084-11.468-9.608-14.924-14.196
		c-0.168,2.524-1.088,5.012-2.416,7.484C371.416,171.672,375.892,175.252,382.236,174.792z"/>
	<path style="fill:#D97A40;" d="M413.908,165.792c-1.776,0-3.412,0.4-4.976,0.94c3.252,2.06,5.172,7.352,5.172,13.26
		c0,13.668-9.756,25.5-30.088,27.832c-0.54,0.064-1.084,0.064-1.628,0.104c3.188,0.232,6.456,0.252,9.628-0.104
		c20.332-2.332,30.088-14.164,30.088-27.832C422.1,172.42,418.972,165.792,413.908,165.792z"/>
</g>
<circle style="fill:#F5F5F5;" cx="321.32" cy="162.128" r="12"/>
<circle style="fill:#242424;" cx="321.32" cy="162.128" r="8"/>
</svg>
